<svg width="180" height="57" viewBox="0 0 180 57" fill="none" xmlns="http://www.w3.org/2000/svg">
<mask id="mask0_1185_58328" style="mask-type:luminance" maskUnits="userSpaceOnUse" x="-71" y="-133" width="322" height="322">
<path d="M-70.7852 -132.913H250.784V188.656H-70.7852V-132.913Z" fill="white"/>
</mask>
<g mask="url(#mask0_1185_58328)">
<path d="M49.2019 42.8477L48.7598 40.0616H57.7521C58.7725 40.0616 59.5198 39.9079 59.9944 39.6011C60.4684 39.2943 60.7054 38.8097 60.7054 38.1482C60.7054 37.4787 60.4385 36.9604 59.9044 36.5938C59.3703 36.2272 58.577 35.9439 57.5248 35.7445L54.3679 35.1586C52.5662 34.8239 51.2169 34.2736 50.32 33.5086C49.4232 32.743 48.9749 31.6429 48.9749 30.208C48.9749 28.7729 49.4868 27.6628 50.5114 26.8779C51.5359 26.0926 53.0244 25.7 54.9776 25.7H62.4516L62.8699 28.4983H55.0973C54.1088 28.4983 53.3933 28.6317 52.9508 28.8986C52.5083 29.1658 52.2871 29.5861 52.2871 30.1601C52.2871 30.7663 52.5443 31.2406 53.0585 31.5834C53.5727 31.9259 54.3441 32.1973 55.3722 32.3963L58.577 32.9822C60.4266 33.3253 61.7959 33.8852 62.6847 34.6624C63.5735 35.4397 64.0182 36.5777 64.0182 38.0765C64.0182 39.5992 63.4899 40.7751 62.4335 41.6041C61.3772 42.4335 59.8568 42.8477 57.8714 42.8477H49.2019Z" fill="#3F3028"/>
<path d="M74.5674 35.649H81.9336L80.0083 29.9688C79.6813 28.988 79.0916 28.4983 78.2384 28.4983C77.4091 28.4983 76.8316 28.988 76.5045 29.9688L74.5674 35.649ZM84.3611 42.8477L82.8665 38.4589H73.6345L72.1399 42.8477H68.6602L73.539 29.1079C73.8657 28.1831 74.2744 27.4435 74.7645 26.8898C75.2549 26.3357 75.7752 25.9588 76.3251 25.7594C76.8753 25.5604 77.513 25.4604 78.2384 25.4604C79.3626 25.4604 80.3212 25.7315 81.1145 26.274C81.9075 26.8158 82.5394 27.7609 83.0096 29.1079L87.8887 42.8477H84.3611Z" fill="#3F3028"/>
<path d="M106.45 25.7H109.679V42.8477H106.45V35.5294H97.0153V42.8477H93.8105V25.7H97.0153V32.7073H106.45V25.7Z" fill="#3F3028"/>
<path d="M121.507 35.649H128.873L126.947 29.9688C126.621 28.988 126.031 28.4983 125.178 28.4983C124.349 28.4983 123.771 28.988 123.444 29.9688L121.507 35.649ZM131.301 42.8477L129.806 38.4589H120.574L119.079 42.8477H115.6L120.478 29.1079C120.805 28.1831 121.214 27.4435 121.704 26.8898C122.194 26.3357 122.715 25.9588 123.265 25.7594C123.815 25.5604 124.452 25.4604 125.178 25.4604C126.302 25.4604 127.26 25.7315 128.054 26.274C128.847 26.8158 129.479 27.7609 129.949 29.1079L134.828 42.8477H131.301Z" fill="#3F3028"/>
<path d="M151.333 37.2871L156.08 42.8477H152.038L146.896 36.7491V34.812H148.224C149.706 34.812 150.783 34.5486 151.452 34.0228C152.122 33.4964 152.457 32.7073 152.457 31.6548C152.457 30.6106 152.122 29.8234 151.452 29.2935C150.783 28.7632 149.706 28.4983 148.224 28.4983H143.955V42.8477H140.75V25.7H148.415C150.831 25.7 152.66 26.2302 153.904 27.2901C155.147 28.3507 155.769 29.8054 155.769 31.6548C155.769 33.0899 155.394 34.2936 154.645 35.2663C153.896 36.2391 152.792 36.9124 151.333 37.2871Z" fill="#3F3028"/>
<path d="M166.679 35.649H174.045L172.119 29.9688C171.793 28.988 171.203 28.4983 170.35 28.4983C169.52 28.4983 168.943 28.988 168.616 29.9688L166.679 35.649ZM176.472 42.8477L174.977 38.4589H165.746L164.251 42.8477H160.771L165.65 29.1079C165.977 28.1831 166.385 27.4435 166.876 26.8898C167.366 26.3357 167.886 25.9588 168.436 25.7594C168.987 25.5604 169.624 25.4604 170.35 25.4604C171.474 25.4604 172.432 25.7315 173.226 26.274C174.019 26.8158 174.651 27.7609 175.121 29.1079L180 42.8477H176.472Z" fill="#3F3028"/>
</g>
<path d="M3.92572 22.9706C1.45864 26.324 0 30.4655 0 34.9475C0 40.3933 2.15194 45.3361 5.65159 48.9731L20.2316 34.3931V43.8717L11.0987 53.0049C13.8423 54.3951 16.9454 55.1797 20.2316 55.1797C31.4055 55.1797 40.4641 46.1214 40.4641 34.9475C40.4641 30.4655 39.0051 26.324 36.538 22.9706L30.5453 14.7365L20.211 25.0705V15.5919L26.5523 9.25055L20.2316 0.565578L3.92572 22.9706Z" fill="url(#paint0_linear_1185_58328)"/>
<mask id="mask1_1185_58328" style="mask-type:luminance" maskUnits="userSpaceOnUse" x="-71" y="-133" width="322" height="322">
<path d="M-70.7852 -132.913H250.784V188.656H-70.7852V-132.913Z" fill="white"/>
</mask>
<g mask="url(#mask1_1185_58328)">
<path d="M35.4591 40.3135C39.3012 36.783 35.589 29.7217 34.6513 26.4668C33.7133 23.2122 36.4621 22.8684 36.4621 22.8684C34.8677 22.8073 33.4843 23.4951 32.7203 25.4448C30.1362 32.0405 22.7905 32.3959 17.8258 25.4448C15.9482 22.8166 14.8163 21.5024 13.8525 21.3397C13.4554 21.3207 12.9965 21.6693 13.3573 23.6533C13.7255 25.6792 14.9677 27.608 15.8569 29.4352C16.4971 30.7497 17.2457 32.0544 17.5991 33.4841C17.8618 34.5459 17.8786 35.7032 17.4313 36.702C17.3107 36.9708 17.2017 37.2451 17.1023 37.523L20.2312 34.3941V43.8727L17.64 46.4639C17.9159 47.0221 18.2513 47.5476 18.6674 48.0164C19.2517 48.674 20.0099 49.1976 20.8656 49.4005C21.3396 49.5124 21.8316 49.5252 22.3101 49.6159C22.7889 49.7063 23.2755 49.8905 23.5855 50.2664C24.5836 51.4772 23.8077 53.4918 22.9648 54.9961C26.231 54.5549 29.2499 53.3345 31.8283 51.5276C31.0407 47.7302 32.7872 42.7687 35.4591 40.3135Z" fill="#EE9C39"/>
<path d="M7.89646 29.1669C5.622 32.8492 2.9697 31.9005 0.701987 29.6611C0.246644 31.3465 0 33.1177 0 34.9471C0 40.3929 2.15227 45.3354 5.65159 48.9727L17.1027 37.5212C17.2024 37.2434 17.3114 36.9694 17.432 36.7003C17.879 35.7015 17.8626 34.5445 17.5998 33.4823C17.2464 32.0529 16.4978 30.748 15.8576 29.4334C14.9684 27.6063 13.7262 25.6775 13.358 23.6519C12.9972 21.6675 13.4561 21.319 13.8532 21.3379C12.2682 21.0704 11.1385 23.9182 7.89646 29.1669Z" fill="#F5B44E"/>
<path d="M23.5868 50.2655C23.2768 49.8895 22.7903 49.7053 22.3118 49.6149C21.833 49.5239 21.341 49.5114 20.867 49.3995C20.0113 49.1966 19.253 48.673 18.669 48.0154C18.2526 47.5466 17.9175 47.0211 17.6416 46.4629L11.0996 53.0049C13.8432 54.3954 16.9464 55.1797 20.2325 55.1797C21.1599 55.1797 22.0719 55.116 22.9662 54.9951C23.809 53.4908 24.585 51.4762 23.5868 50.2655Z" fill="#F5B44E"/>
<path d="M40.4636 34.9482C40.4636 30.4661 39.0049 26.3246 36.5378 22.9713L36.4626 22.8681C36.4626 22.8681 33.7138 23.2118 34.6515 26.4665C35.5892 29.7214 39.3014 36.7824 35.4593 40.3132C32.7877 42.7681 31.0412 47.7299 31.8288 51.5273C37.0495 47.8685 40.4636 41.8076 40.4636 34.9482Z" fill="#D57D2A"/>
</g>
<path d="M140.408 47.5898V56.4415H144.087C147.248 56.4415 148.729 55.0218 148.729 52.0157C148.729 49.0096 147.248 47.5898 144.087 47.5898H140.408ZM142.062 55.0033V49.0343H144.087C146.087 49.0343 147.019 49.991 147.019 52.0157C147.019 54.0403 146.087 55.0033 144.087 55.0033H142.062Z" fill="#EE9C39"/>
<path d="M158.286 56.4415L158.502 55.0033H154.422C153.428 55.0033 152.965 54.565 152.965 53.6329V52.6268H157.404V51.2318H152.965V49.0343H158.391L158.175 47.5898H151.299V53.7873C151.299 55.5588 152.2 56.4415 154.002 56.4415H158.286Z" fill="#EE9C39"/>
<path d="M165.153 56.4415C167.202 56.4415 168.326 55.5527 168.326 53.9786C168.326 53.207 168.097 52.6144 167.64 52.2132C167.177 51.812 166.474 51.528 165.517 51.349L163.863 51.0466C162.801 50.8429 162.27 50.5157 162.27 49.8923C162.27 49.2997 162.702 49.0343 163.721 49.0343H167.733L167.517 47.5898H163.659C161.641 47.5898 160.56 48.4355 160.56 49.917C160.56 50.6577 160.795 51.2256 161.258 51.6206C161.721 52.0157 162.412 52.2996 163.344 52.4725L164.974 52.7749C166.06 52.9786 166.616 53.3243 166.616 54.0156C166.616 54.7008 166.147 55.0033 165.091 55.0033H160.449L160.678 56.4415H165.153Z" fill="#EE9C39"/>
<path d="M176.789 53.1268C176.444 52.6206 176.042 52.2441 175.586 52.0033C176.055 51.707 176.388 51.3367 176.789 50.7379L178.937 47.5898H177.005L175.437 50.0342C174.913 50.8429 174.37 51.2441 173.82 51.2441H172.437V47.5898H170.783V56.4415H172.437V52.7255H173.795C174.37 52.7255 174.95 53.2008 175.425 53.9107L177.042 56.4415H179.067L176.789 53.1268Z" fill="#EE9C39"/>
<defs>
<linearGradient id="paint0_linear_1185_58328" x1="20.2947" y1="35.8379" x2="18.557" y2="11.2617" gradientUnits="userSpaceOnUse">
<stop stop-color="#3F3028"/>
<stop offset="1" stop-color="#5F4B3E"/>
</linearGradient>
</defs>
</svg>
