<svg width="18" height="20" viewBox="0 0 18 20" fill="none" xmlns="http://www.w3.org/2000/svg">
<path d="M6.00391 9H4.00391V11H6.00391V9ZM10.0039 9H8.00391V11H10.0039V9ZM14.0039 9H12.0039V11H14.0039V9ZM16.0039 2H15.0039V0H13.0039V2H5.00391V0H3.00391V2H2.00391C0.893906 2 0.0139062 2.9 0.0139062 4L0.00390625 18C0.00390625 19.1 0.893906 20 2.00391 20H16.0039C17.1039 20 18.0039 19.1 18.0039 18V4C18.0039 2.9 17.1039 2 16.0039 2ZM16.0039 18H2.00391V7H16.0039V18Z" fill="#D57D2A" fill-opacity="0.87"/>
</svg>
