<svg width="162" height="50" viewBox="0 0 162 50" fill="none" xmlns="http://www.w3.org/2000/svg">
<g clip-path="url(#clip0_36_3825)">
<mask id="mask0_36_3825" style="mask-type:luminance" maskUnits="userSpaceOnUse" x="-64" y="-120" width="289" height="289">
<path d="M-63.3398 -119.44H224.41V168.31H-63.3398V-119.44Z" fill="white"/>
</mask>
<g mask="url(#mask0_36_3825)">
<path d="M44.0285 37.8374L43.6328 35.3443H51.6795C52.5925 35.3443 53.2612 35.2068 53.6859 34.9323C54.1101 34.6578 54.3221 34.2241 54.3221 33.6322C54.3221 33.0331 54.0833 32.5693 53.6054 32.2412C53.1274 31.9132 52.4175 31.6597 51.476 31.4813L48.6512 30.957C47.0389 30.6575 45.8315 30.1651 45.029 29.4806C44.2264 28.7954 43.8253 27.811 43.8253 26.5271C43.8253 25.2429 44.2834 24.2496 45.2002 23.5472C46.117 22.8445 47.449 22.4931 49.1967 22.4931H55.8846L56.259 24.9971H49.3038C48.4192 24.9971 47.779 25.1166 47.3831 25.3554C46.9871 25.5945 46.7891 25.9706 46.7891 26.4842C46.7891 27.0266 47.0193 27.4511 47.4795 27.7578C47.9396 28.0643 48.6299 28.3071 49.5498 28.4852L52.4175 29.0095C54.0727 29.3166 55.2979 29.8175 56.0933 30.513C56.8886 31.2085 57.2865 32.2269 57.2865 33.5681C57.2865 34.9306 56.8138 35.9829 55.8685 36.7247C54.9233 37.4668 53.5628 37.8374 51.7862 37.8374H44.0285Z" fill="#3F3028"/>
<path d="M66.7274 31.3961H73.3189L71.5961 26.3133C71.3035 25.4356 70.7757 24.9974 70.0123 24.9974C69.2702 24.9974 68.7534 25.4356 68.4608 26.3133L66.7274 31.3961ZM75.4911 37.8376L74.1536 33.9104H65.8926L64.5551 37.8376H61.4414L65.8071 25.543C66.0995 24.7154 66.4652 24.0536 66.9038 23.5581C67.3426 23.0623 67.8082 22.725 68.3002 22.5466C68.7926 22.3685 69.3632 22.279 70.0123 22.279C71.0183 22.279 71.8761 22.5216 72.586 23.007C73.2956 23.4919 73.861 24.3376 74.2817 25.543L78.6477 37.8376H75.4911Z" fill="#3F3028"/>
<path d="M95.2556 22.4934H98.1446V37.8376H95.2556V31.289H86.813V37.8376H83.9453V22.4934H86.813V28.7637H95.2556V22.4934Z" fill="#3F3028"/>
<path d="M108.731 31.3961H115.322L113.6 26.3133C113.307 25.4356 112.78 24.9974 112.016 24.9974C111.274 24.9974 110.757 25.4356 110.465 26.3133L108.731 31.3961ZM117.495 37.8376L116.157 33.9104H107.897L106.559 37.8376H103.445L107.811 25.543C108.103 24.7154 108.469 24.0536 108.908 23.5581C109.346 23.0623 109.812 22.725 110.304 22.5466C110.796 22.3685 111.367 22.279 112.016 22.279C113.022 22.279 113.88 22.5216 114.59 23.007C115.299 23.4919 115.865 24.3376 116.286 25.543L120.652 37.8376H117.495Z" fill="#3F3028"/>
<path d="M135.419 32.8619L139.667 37.8376H136.05L131.449 32.3805V30.6471H132.637C133.964 30.6471 134.927 30.4114 135.526 29.9409C136.125 29.4699 136.425 28.7637 136.425 27.8219C136.425 26.8876 136.125 26.1832 135.526 25.709C134.927 25.2345 133.964 24.9974 132.637 24.9974H128.817V37.8376H125.949V22.4934H132.808C134.97 22.4934 136.607 22.9679 137.72 23.9163C138.832 24.8653 139.389 26.1671 139.389 27.8219C139.389 29.1062 139.053 30.1832 138.383 31.0537C137.712 31.9241 136.725 32.5266 135.419 32.8619Z" fill="#3F3028"/>
<path d="M149.149 31.3961H155.74L154.018 26.3133C153.725 25.4356 153.197 24.9974 152.434 24.9974C151.692 24.9974 151.175 25.4356 150.883 26.3133L149.149 31.3961ZM157.913 37.8376L156.575 33.9104H148.314L146.977 37.8376H143.863L148.229 25.543C148.521 24.7154 148.887 24.0536 149.326 23.5581C149.764 23.0623 150.23 22.725 150.722 22.5466C151.214 22.3685 151.785 22.279 152.434 22.279C153.44 22.279 154.298 22.5216 155.008 23.007C155.717 23.4919 156.283 24.3376 156.704 25.543L161.069 37.8376H157.913Z" fill="#3F3028"/>
</g>
<path d="M3.51285 20.0487C1.30523 23.0494 0 26.7553 0 30.766C0 35.639 1.92562 40.062 5.05721 43.3165L18.1038 30.2699V38.7516L9.9314 46.9243C12.3865 48.1683 15.1633 48.8704 18.1038 48.8704C28.1025 48.8704 36.2084 40.7647 36.2084 30.766C36.2084 26.7553 34.9029 23.0494 32.6953 20.0487L27.3328 12.6806L18.0854 21.9278V13.446L23.7598 7.77162L18.1038 5.34058e-05L3.51285 20.0487Z" fill="url(#paint0_linear_36_3825)"/>
<mask id="mask1_36_3825" style="mask-type:luminance" maskUnits="userSpaceOnUse" x="-64" y="-120" width="289" height="289">
<path d="M-63.3398 -119.44H224.41V168.31H-63.3398V-119.44Z" fill="white"/>
</mask>
<g mask="url(#mask1_36_3825)">
<path d="M31.7303 35.5665C35.1683 32.4073 31.8465 26.0886 31.0074 23.1759C30.1681 20.2636 32.6278 19.956 32.6278 19.956C31.2011 19.9014 29.9632 20.5168 29.2795 22.2615C26.9671 28.1635 20.3941 28.4815 15.9515 22.2615C14.2713 19.9097 13.2584 18.7337 12.3961 18.5881C12.0407 18.5711 11.6301 18.883 11.9529 20.6584C12.2824 22.4712 13.394 24.1972 14.1896 25.8322C14.7625 27.0085 15.4324 28.1759 15.7486 29.4552C15.9837 30.4054 15.9987 31.441 15.5984 32.3347C15.4905 32.5753 15.393 32.8207 15.3041 33.0694L18.1039 30.2696V38.7513L15.7852 41.07C16.0321 41.5695 16.3322 42.0397 16.7045 42.4592C17.2274 43.0477 17.9059 43.5161 18.6716 43.6977C19.0957 43.7978 19.536 43.8093 19.9642 43.8905C20.3926 43.9713 20.828 44.1362 21.1054 44.4726C21.9986 45.556 21.3042 47.3587 20.55 48.7048C23.4727 48.31 26.1741 47.218 28.4813 45.6012C27.7766 42.2031 29.3393 37.7634 31.7303 35.5665Z" fill="#EE9C39"/>
<path d="M7.06599 25.5936C5.03073 28.8886 2.65737 28.0398 0.628158 26.0359C0.220704 27.544 0 29.1289 0 30.7659C0 35.639 1.92591 40.0617 5.05721 43.3164L15.304 33.0693C15.3932 32.8207 15.4907 32.5756 15.5986 32.3347C15.9986 31.441 15.9839 30.4056 15.7488 29.4552C15.4326 28.1762 14.7627 27.0085 14.1898 25.8321C13.3942 24.1971 12.2826 22.4712 11.9531 20.6587C11.6303 18.883 12.0409 18.5711 12.3963 18.588C10.978 18.3486 9.96708 20.8969 7.06599 25.5936Z" fill="#F5B44E"/>
<path d="M21.1036 44.4727C20.8262 44.1363 20.3908 43.9715 19.9627 43.8906C19.5342 43.8092 19.0939 43.7979 18.6698 43.6978C17.9041 43.5162 17.2256 43.0478 16.703 42.4593C16.3304 42.0398 16.0306 41.5696 15.7837 41.0701L9.92969 46.9241C12.3848 48.1683 15.1616 48.8701 18.1021 48.8701C18.9319 48.8701 19.748 48.8131 20.5482 48.7049C21.3024 47.3589 21.9968 45.5561 21.1036 44.4727Z" fill="#F5B44E"/>
<path d="M36.2093 30.7658C36.2093 26.7551 34.904 23.0492 32.6964 20.0485L32.6291 19.9562C32.6291 19.9562 30.1694 20.2638 31.0085 23.1761C31.8476 26.0887 35.1693 32.4071 31.7313 35.5666C29.3407 37.7633 27.7779 42.2033 28.4826 45.6013C33.1542 42.3273 36.2093 36.9038 36.2093 30.7658Z" fill="#D57D2A"/>
</g>
<path d="M125.645 42.0791V49.9998H128.937C131.765 49.9998 133.09 48.7294 133.09 46.0395C133.09 43.3495 131.765 42.0791 128.937 42.0791H125.645ZM127.125 48.7129V43.3716H128.937C130.726 43.3716 131.56 44.2278 131.56 46.0395C131.56 47.8512 130.726 48.7129 128.937 48.7129H127.125Z" fill="#EE9C39"/>
<path d="M141.643 49.9998L141.837 48.7129H138.186C137.296 48.7129 136.882 48.3207 136.882 47.4866V46.5863H140.853V45.338H136.882V43.3716H141.737L141.544 42.0791H135.391V47.6247C135.391 49.21 136.197 49.9998 137.81 49.9998H141.643Z" fill="#EE9C39"/>
<path d="M147.787 49.9998C149.621 49.9998 150.626 49.2045 150.626 47.796C150.626 47.1055 150.422 46.5753 150.013 46.2162C149.599 45.8572 148.969 45.6031 148.113 45.4429L146.633 45.1723C145.683 44.99 145.208 44.6973 145.208 44.1394C145.208 43.6091 145.594 43.3716 146.506 43.3716H150.096L149.903 42.0791H146.45C144.644 42.0791 143.678 42.8358 143.678 44.1615C143.678 44.8243 143.887 45.3325 144.302 45.686C144.716 46.0395 145.335 46.2936 146.169 46.4482L147.627 46.7189C148.599 46.9011 149.096 47.2105 149.096 47.8291C149.096 48.4422 148.676 48.7129 147.732 48.7129H143.578L143.782 49.9998H147.787Z" fill="#EE9C39"/>
<path d="M158.199 47.0337C157.889 46.5808 157.53 46.2438 157.122 46.0284C157.541 45.7633 157.84 45.4319 158.199 44.8961L160.121 42.0791H158.392L156.989 44.2664C156.519 44.99 156.033 45.349 155.542 45.349H154.305V42.0791H152.824V49.9998H154.305V46.6747H155.52C156.033 46.6747 156.553 47.1 156.978 47.7352L158.425 49.9998H160.237L158.199 47.0337Z" fill="#EE9C39"/>
</g>
<defs>
<linearGradient id="paint0_linear_36_3825" x1="18.1603" y1="31.5628" x2="16.6053" y2="9.57122" gradientUnits="userSpaceOnUse">
<stop stop-color="#3F3028"/>
<stop offset="1" stop-color="#5F4B3E"/>
</linearGradient>
<clipPath id="clip0_36_3825">
<rect width="161.069" height="50" fill="white"/>
</clipPath>
</defs>
</svg>
