<svg width="145" height="45" viewBox="0 0 145 45" fill="none" xmlns="http://www.w3.org/2000/svg">
<g clip-path="url(#clip0_677_13690)">
<path d="M30.8062 37.0227C30.8275 36.9802 30.8699 36.9166 30.8911 36.8741C30.9123 36.8317 30.9547 36.7681 30.9759 36.7256C31.0396 36.6408 31.082 36.5347 31.1457 36.4498C31.1669 36.4286 31.1669 36.3862 31.1881 36.365C32.2913 34.3918 32.9915 32.1853 33.2036 29.8303C33.2036 29.8091 33.2036 29.7879 33.2036 29.7666C33.2249 29.6393 33.2249 29.4908 33.2249 29.3635C33.2249 29.3211 33.2249 29.2999 33.2249 29.2574C33.2249 29.1301 33.2461 29.0028 33.2461 28.8968C33.2461 28.8544 33.2461 28.8119 33.2461 28.7695C33.2461 28.621 33.2461 28.4512 33.2461 28.3027C33.2461 27.6238 33.2037 26.9661 33.1188 26.3084C33.034 25.5658 32.8855 24.8444 32.7157 24.1443C32.2914 22.5319 31.6549 20.983 30.7638 19.5615C30.7214 19.4767 30.6577 19.413 30.6153 19.3282C30.5516 19.2221 30.4668 19.116 30.4031 18.9887C30.2758 18.7978 30.1485 18.628 30.0212 18.4371L30 18.4158L29.6818 17.9915L24.7808 11.2447L17.3975 18.628V13.4724L22.6167 8.25318L16.6549 0L3.24612 18.437C2.29138 19.7525 1.52759 21.1528 0.99718 22.6591L0.954744 22.6167L0.678931 23.5927C0.403118 24.5474 0.21217 25.5446 0.106088 26.5629C0.106088 26.6266 0.0848707 26.669 0.0848707 26.7327C0.063653 26.86 0.0636532 26.9873 0.0636532 27.0934C0.0636532 27.1994 0.042435 27.3055 0.042435 27.4116C0.042435 27.4965 0.0424352 27.5813 0.0212175 27.6874C0.0212175 27.8784 0 28.0905 0 28.2815C0 32.6096 1.65488 36.7044 4.64639 39.8232L5.21924 40.4173L15.8486 29.7878V34.9434L14.8515 35.9406L8.16832 42.6238L9.14427 43.133C11.4781 44.3211 14.024 44.9151 16.6549 44.9151C16.8246 44.9151 16.9943 44.9151 17.1641 44.9151C17.2065 44.9151 17.2489 44.9151 17.2914 44.9151C17.3126 44.9151 17.3338 44.9151 17.355 44.9151L17.3126 45L18.7765 44.8091L18.9038 44.7878L19.307 44.7241H19.3282C19.3706 44.7241 19.4131 44.7029 19.4555 44.7029C19.5828 44.6816 19.6889 44.6605 19.8162 44.6392C19.8586 44.6392 19.8799 44.618 19.9223 44.618C20.389 44.5331 20.8558 44.4058 21.3225 44.2785C21.3438 44.2785 21.3438 44.2785 21.365 44.2573C21.4923 44.2148 21.6408 44.1724 21.7681 44.13C21.7893 44.13 21.8105 44.1087 21.8529 44.1087C21.9802 44.0663 22.1075 44.0238 22.2136 43.9814C22.2349 43.9814 22.2773 43.9602 22.2985 43.9602C22.4258 43.9177 22.5531 43.8753 22.6592 43.8329C22.6804 43.8329 22.7228 43.8116 22.744 43.8116C22.8713 43.7692 23.0198 43.7055 23.1471 43.6419C23.232 43.5995 23.3381 43.557 23.423 43.5146C23.4654 43.4933 23.4866 43.4933 23.529 43.4722C23.6351 43.4297 23.7624 43.3661 23.8685 43.3237C23.8685 43.3237 23.8685 43.3237 23.8897 43.3237C24.3353 43.1115 24.7808 42.8781 25.2052 42.6235V42.6659L26.2023 41.9658L26.6267 41.6688C28.324 40.3321 29.7242 38.7836 30.8062 37.0227ZM31.6973 28.6846C31.6973 28.7058 31.6973 28.727 31.6973 28.7695C31.6973 28.8756 31.6973 28.9817 31.676 29.1089C31.676 29.1302 31.676 29.1514 31.676 29.1726C31.676 29.2999 31.6548 29.406 31.6548 29.5333V29.5545C31.4639 31.7186 30.8274 33.7978 29.7665 35.6649C29.7665 35.6861 29.7453 35.7073 29.7453 35.7073C29.7029 35.7922 29.6604 35.8558 29.618 35.9407C29.5967 35.9831 29.5756 36.0255 29.5331 36.068C29.5119 36.0892 29.5119 36.1104 29.4907 36.1316C28.6633 37.4895 27.6024 38.6988 26.3931 39.7384C26.3931 39.7172 26.3931 39.7172 26.3931 39.696C26.3931 39.5687 26.3931 39.4414 26.3931 39.3141V39.2929C26.3931 39.1656 26.4144 39.017 26.4355 38.8898C26.4355 38.8686 26.4355 38.8261 26.4355 38.8049C26.4568 38.6776 26.478 38.5291 26.478 38.4018C26.478 38.3805 26.478 38.3594 26.4992 38.3381C26.5205 38.2108 26.5416 38.0623 26.5629 37.935V37.9137C26.5841 37.7864 26.6265 37.6379 26.6477 37.5106C26.6477 37.4894 26.6689 37.4682 26.6689 37.4258C26.7113 37.2985 26.7326 37.15 26.775 37.0227C26.775 37.0014 26.7962 36.9802 26.7962 36.959C26.8386 36.8317 26.881 36.6832 26.9235 36.5559V36.5346C26.9659 36.4073 27.0296 36.2588 27.072 36.1315C27.072 36.1103 27.0932 36.0891 27.0932 36.0466C27.1357 35.9193 27.1993 35.7921 27.263 35.6648C27.263 35.6435 27.2842 35.6223 27.2842 35.6011C27.3479 35.4738 27.4115 35.3465 27.4752 35.2192C27.4752 35.2192 27.4752 35.2192 27.4752 35.1979C27.5388 35.0706 27.6025 34.9433 27.6661 34.8373C27.6873 34.816 27.6873 34.7948 27.7085 34.7736C27.7722 34.6675 27.8358 34.5402 27.9207 34.4341C27.9419 34.4129 27.9419 34.3917 27.9631 34.3705C28.048 34.2644 28.1116 34.1583 28.1965 34.031C28.2814 33.9249 28.3662 33.8188 28.4511 33.7127C28.4724 33.6915 28.4724 33.6703 28.4935 33.6491C28.5784 33.543 28.6633 33.4581 28.7481 33.3733C28.7694 33.352 28.7905 33.3308 28.7905 33.3308C28.8754 33.246 28.9603 33.1399 29.0664 33.055C31.9306 30.4242 30.2969 25.9475 29.2149 22.9985C29.0239 22.4468 28.833 21.9801 28.7269 21.577C28.7056 21.5133 28.6845 21.4709 28.6845 21.4072C28.5572 21.0041 28.4723 20.4313 28.7057 20.0494C28.727 20.0282 28.7481 19.9857 28.7694 19.9645L28.7906 19.9433C28.8119 19.922 28.8331 19.9008 28.8543 19.8796C28.8543 19.8796 28.8543 19.8796 28.8756 19.8583C28.8968 19.8371 28.918 19.8159 28.9392 19.7947C28.9392 19.7947 28.9605 19.7947 28.9605 19.7735C28.9817 19.7523 29.0029 19.7523 29.0241 19.7311C29.0454 19.7523 29.0454 19.7735 29.0666 19.7735C29.109 19.8372 29.1514 19.922 29.2151 19.9857C29.2787 20.0705 29.3424 20.1766 29.3848 20.2615C29.4272 20.3251 29.4697 20.41 29.5121 20.4736C29.5758 20.5585 29.6182 20.6646 29.6818 20.7494C29.7243 20.8343 29.7667 20.898 29.8091 20.9828C29.8516 21.0677 29.9152 21.1738 29.9577 21.2587C30.0001 21.3435 30.0425 21.4072 30.0849 21.492C30.1274 21.5769 30.1698 21.683 30.2335 21.7678C30.2759 21.8527 30.3183 21.9376 30.3395 22.0012C30.382 22.1073 30.4244 22.1922 30.4668 22.2983C30.5093 22.3831 30.5305 22.468 30.5729 22.5316C30.6153 22.6377 30.6578 22.7226 30.679 22.8287C30.7003 22.9135 30.7427 22.9984 30.7639 23.0833C30.8063 23.1893 30.8275 23.2742 30.8699 23.3803C30.8912 23.4652 30.9336 23.55 30.9548 23.6349C30.9972 23.741 31.0185 23.8258 31.0397 23.9319C31.0609 24.0168 31.0821 24.1016 31.1034 24.1865C31.1245 24.2926 31.167 24.3987 31.1882 24.4835C31.2095 24.5684 31.2306 24.6533 31.2519 24.7381C31.2731 24.8442 31.2943 24.9503 31.3156 25.0564C31.3368 25.1412 31.358 25.2261 31.358 25.311C31.3791 25.4171 31.4004 25.5231 31.4216 25.6292C31.4429 25.7141 31.4429 25.799 31.4641 25.8838C31.4853 25.9899 31.4853 26.096 31.5065 26.2233C31.5277 26.3082 31.5277 26.393 31.5489 26.4779C31.5701 26.584 31.5702 26.7113 31.5913 26.8386C31.5913 26.9234 31.6126 26.9871 31.6126 27.0719C31.6126 27.1992 31.6338 27.3265 31.6338 27.4538C31.6338 27.5175 31.6338 27.5811 31.6551 27.6448C31.6551 27.8357 31.6763 28.0267 31.6763 28.2388C31.6976 28.4086 31.6973 28.5573 31.6973 28.6846ZM24.6322 13.6846L27.942 18.2249C26.9236 18.5856 26.1598 19.3706 25.6931 20.5375C24.908 22.5319 23.5078 23.7624 21.768 23.9746C20.0283 24.1867 18.1824 23.3593 16.57 21.7469L24.6322 13.6846ZM4.5403 19.3706L16.6549 2.71575L20.5587 8.06228L15.8486 12.7935V20.9194C15.7001 20.7497 15.5728 20.5587 15.4455 20.3678C13.8331 18.1189 12.8783 17.0156 11.8175 16.8247C10.3324 16.5701 9.46251 18.0552 7.87128 20.7497C7.42574 21.5135 6.93775 22.3621 6.32248 23.3169C5.72842 24.2716 5.11315 24.7808 4.47665 24.8657C3.71286 24.9505 2.90664 24.4413 2.27015 23.8685C2.75813 22.2773 3.52192 20.7497 4.5403 19.3706ZM1.61244 28.2815C1.61244 28.0693 1.61244 27.8572 1.63366 27.6238C1.63366 27.5814 1.63366 27.5389 1.63366 27.5177C1.63366 27.3268 1.65488 27.157 1.67609 26.9661C1.67609 26.9448 1.67609 26.9237 1.67609 26.8812C1.69731 26.6691 1.71853 26.4781 1.73974 26.266C1.76095 26.0538 1.80338 25.8204 1.84582 25.6082C2.80056 26.2872 3.7553 26.5842 4.64638 26.4781C5.79207 26.3508 6.81045 25.5658 7.65912 24.1867C8.25317 23.2108 8.76237 22.3409 9.20791 21.5771C9.63224 20.8558 10.0566 20.1132 10.4385 19.5404C10.4385 19.5616 10.4385 19.5828 10.4385 19.5828C10.6718 20.8982 11.3083 22.1075 11.9236 23.2744C12.1146 23.6351 12.2843 23.9746 12.454 24.314C12.5601 24.5262 12.6662 24.7384 12.7723 24.9293C13.1754 25.7355 13.5785 26.4993 13.7694 27.3268C13.8967 27.8572 14.0028 28.6422 13.6846 29.3211C13.6421 29.4272 13.5997 29.5333 13.5573 29.6393C13.536 29.6606 13.536 29.703 13.5148 29.7242C13.4936 29.7666 13.4724 29.8091 13.4724 29.8515L5.21925 38.1047C2.90666 35.3678 1.61244 31.9095 1.61244 28.2815ZM17.4611 35.6012V25.9053L15.5304 27.836V27.8147C15.5304 27.751 15.5091 27.6874 15.5091 27.6238V27.6025C15.5091 27.5389 15.4879 27.454 15.4879 27.3904C15.4879 27.3691 15.4879 27.3479 15.4879 27.3267C15.4879 27.2843 15.4667 27.2206 15.4667 27.1782C15.4667 27.157 15.4667 27.1358 15.4455 27.1145C15.4242 27.0508 15.4242 26.9872 15.4031 26.9236C15.1697 25.9476 14.7241 25.0565 14.2786 24.2079C14.1725 24.0169 14.0664 23.8047 13.9816 23.6138C13.8118 23.2531 13.6209 22.8924 13.4299 22.5318C12.8783 21.4709 12.2842 20.3677 12.0933 19.3069C12.0721 19.2432 12.0721 19.2008 12.0721 19.1371C12.0721 19.1159 12.0721 19.0947 12.0721 19.0947C12.0721 19.0523 12.0721 19.0311 12.0508 18.9886C12.0508 18.9674 12.0508 18.9462 12.0508 18.9462C12.0508 18.925 12.0508 18.8826 12.0508 18.8614C12.0508 18.8401 12.0508 18.8401 12.0508 18.8189C12.0508 18.7765 12.0508 18.7553 12.0508 18.7129C12.0508 18.7129 12.0508 18.7129 12.0508 18.6916C12.7297 19.2857 13.7057 20.6435 14.1937 21.3224C16.3365 24.3352 19.2856 25.9264 22.0437 25.5869C24.2715 25.3111 26.1173 23.8048 27.1569 21.4285V21.4497C27.1569 21.4921 27.1781 21.5558 27.1781 21.5982C27.1781 21.6195 27.1781 21.6406 27.1994 21.6619C27.2206 21.7255 27.2418 21.8104 27.2631 21.874C27.4116 22.362 27.6025 22.9137 27.8359 23.5714C28.8331 26.2871 30.1909 29.9999 28.1117 31.9094C28.048 31.9731 27.9632 32.0367 27.8995 32.1216C27.8783 32.1427 27.8571 32.164 27.8359 32.1852C27.7935 32.2277 27.751 32.2701 27.6874 32.3338C27.6662 32.355 27.6237 32.3974 27.6025 32.4186C27.5601 32.461 27.5176 32.5035 27.4752 32.5459C27.4539 32.5883 27.4115 32.6096 27.3903 32.652C27.3479 32.6944 27.3055 32.7369 27.2843 32.7793C27.263 32.8217 27.2206 32.843 27.1994 32.8854C27.157 32.9278 27.1357 32.9702 27.0933 33.0127C27.0721 33.0551 27.0296 33.0975 27.0084 33.1188C26.966 33.1612 26.9448 33.2036 26.9024 33.2673C26.8811 33.3097 26.8387 33.3521 26.8175 33.3946C26.7751 33.437 26.7538 33.4794 26.7326 33.5431C26.7114 33.5855 26.669 33.628 26.6478 33.6704C26.6265 33.7128 26.5841 33.7765 26.5629 33.8189C26.5416 33.8613 26.5205 33.9038 26.478 33.9462C26.4568 33.9886 26.4144 34.0523 26.3932 34.0947C26.3719 34.1371 26.3507 34.1796 26.3295 34.222C26.3082 34.2644 26.2658 34.3281 26.2446 34.3705C26.2234 34.4129 26.2022 34.4554 26.181 34.4978C26.1597 34.5402 26.1385 34.6039 26.0961 34.6463C26.0749 34.6888 26.0537 34.7312 26.0324 34.7736C26.0113 34.8373 25.99 34.8797 25.9476 34.9434C25.9263 34.9858 25.9052 35.0282 25.8839 35.0707C25.8627 35.1343 25.8415 35.1768 25.8202 35.2404C25.799 35.2828 25.7778 35.3253 25.7566 35.3677C25.7353 35.4314 25.7141 35.4738 25.6929 35.5374C25.6716 35.5799 25.6505 35.6223 25.6292 35.6647C25.608 35.7284 25.5868 35.792 25.5656 35.8345C25.5443 35.8769 25.5231 35.9193 25.5231 35.9618C25.5019 36.0254 25.4807 36.0891 25.4595 36.1527C25.4382 36.1951 25.4382 36.2376 25.417 36.2588C25.3958 36.3649 25.3534 36.4497 25.3322 36.5558C25.3322 36.5771 25.3109 36.6195 25.3109 36.6407C25.2897 36.7255 25.2685 36.8104 25.2473 36.8953C25.226 36.9377 25.226 36.9801 25.226 37.0226C25.2048 37.0863 25.1836 37.1499 25.1836 37.2135C25.1623 37.256 25.1623 37.2984 25.1623 37.3408C25.1411 37.4045 25.1411 37.4681 25.1199 37.5318C25.1199 37.5742 25.0987 37.6379 25.0987 37.6803C25.0774 37.744 25.0774 37.8076 25.0563 37.85C25.0563 37.8924 25.035 37.9561 25.035 37.9985C25.035 38.0622 25.0138 38.1046 25.0138 38.1683C25.0138 38.2107 24.9926 38.2743 24.9926 38.3168C24.9926 38.3804 24.9713 38.4229 24.9713 38.4865C24.9713 38.5289 24.9501 38.5926 24.9501 38.635C24.9501 38.6987 24.9288 38.7411 24.9288 38.8047C24.9288 38.8472 24.9288 38.9108 24.9076 38.9533C24.9076 39.0169 24.9076 39.0593 24.8863 39.123C24.8863 39.1654 24.8863 39.2291 24.8863 39.2715C24.8863 39.3352 24.8863 39.3776 24.8863 39.4412C24.8863 39.4837 24.8863 39.5473 24.8863 39.5898C24.8863 39.6534 24.8863 39.6958 24.8863 39.7595C24.8863 39.8019 24.8863 39.8656 24.8863 39.908C24.8863 39.9717 24.8863 40.0141 24.8863 40.0777C24.8863 40.1202 24.8863 40.1626 24.8863 40.2263C24.8863 40.2899 24.8863 40.3323 24.9076 40.396C24.9076 40.4384 24.9076 40.4809 24.9288 40.5233C24.9288 40.587 24.9501 40.6294 24.9501 40.693C24.9501 40.7354 24.9501 40.7779 24.9713 40.8203V40.8416C24.547 41.1174 24.1227 41.372 23.6559 41.6054C23.6135 41.6266 23.5498 41.669 23.5074 41.6902C23.3801 41.7539 23.274 41.8175 23.1467 41.8599C23.0406 41.9024 22.9346 41.966 22.8285 42.0085C22.7648 42.0297 22.7224 42.0509 22.6587 42.0721C22.489 42.1358 22.3405 42.1994 22.1708 42.2631C22.1284 42.2843 22.1071 42.2843 22.0647 42.3055C21.895 42.3692 21.704 42.4328 21.5343 42.4964C21.513 42.4964 21.513 42.4964 21.4919 42.5177C21.11 42.645 20.7281 42.7511 20.325 42.8572C20.3037 42.8572 20.3037 42.8572 20.2825 42.8572C20.3037 42.7723 20.3462 42.6874 20.3674 42.5813C20.3674 42.5601 20.3887 42.5389 20.3887 42.5177C20.4099 42.4328 20.4311 42.3692 20.4523 42.2843C20.4523 42.263 20.4736 42.2206 20.4736 42.1994C20.4948 42.1146 20.516 42.0509 20.516 41.966C20.516 41.9448 20.516 41.9236 20.516 41.9236C20.5372 41.8387 20.5372 41.7539 20.5584 41.669C20.5584 41.6478 20.5584 41.6266 20.5584 41.6054C20.5584 41.5417 20.5584 41.4781 20.5584 41.4144C20.5584 41.3932 20.5584 41.372 20.5584 41.3507C20.5584 41.2871 20.5584 41.2022 20.5584 41.1386C20.5584 41.1173 20.5584 41.1173 20.5584 41.0962C20.5584 41.0113 20.5372 40.9476 20.5372 40.8628C20.5372 40.8415 20.5372 40.8204 20.516 40.7991C20.4947 40.7355 20.4947 40.693 20.4736 40.6294C20.4736 40.6081 20.4523 40.587 20.4523 40.5657C20.4311 40.5021 20.4099 40.4384 20.3887 40.3748V40.3535C20.3674 40.2899 20.325 40.2262 20.3038 40.1414C20.3038 40.1201 20.2826 40.099 20.2826 40.0777C20.2614 40.0353 20.2189 39.9716 20.1977 39.9292C20.1765 39.9079 20.1765 39.8868 20.1553 39.8655C20.1129 39.8018 20.0704 39.7382 20.028 39.6746C19.6886 39.2714 19.2006 39.0169 18.5641 38.8896C18.3731 38.8471 18.1822 38.8259 18.0125 38.8047C17.8215 38.7834 17.6306 38.7623 17.4608 38.7198C16.9941 38.6138 16.5273 38.3167 16.1454 37.8924C16.0817 37.8075 16.0181 37.7227 15.9545 37.6378C15.9332 37.6165 15.9121 37.5741 15.8908 37.5529C15.8484 37.4893 15.8059 37.4256 15.7635 37.3832L15.7423 37.3619L17.4611 35.6012ZM10.884 42.1783L14.4696 38.5927C14.4908 38.6351 14.512 38.6564 14.5332 38.6775C14.5545 38.6988 14.5757 38.7412 14.5969 38.7624C14.6818 38.8685 14.7454 38.9534 14.8303 39.0382C15.4456 39.7171 16.1669 40.1839 16.9732 40.3749C17.2278 40.4385 17.4611 40.4597 17.6945 40.4809C17.843 40.5022 17.9915 40.5234 18.1401 40.5446C18.3946 40.587 18.5856 40.6719 18.6705 40.778C18.6917 40.7992 18.7129 40.8417 18.7341 40.8629C18.7341 40.8629 18.7554 40.8841 18.7554 40.9053C18.7766 40.9265 18.7766 40.9477 18.7978 40.969C18.7978 40.9902 18.7978 40.9902 18.8191 41.0114C18.8191 41.0326 18.8403 41.0538 18.8403 41.075C18.8403 41.0963 18.8403 41.1175 18.8616 41.1175C18.8616 41.1387 18.8616 41.1599 18.8828 41.1811C18.8828 41.2024 18.8828 41.2235 18.8828 41.2448C18.8828 41.266 18.8828 41.2872 18.8828 41.3297C18.8828 41.3509 18.8828 41.3721 18.8828 41.3933C18.8828 41.4146 18.8828 41.457 18.8828 41.4782C18.8828 41.4994 18.8828 41.5206 18.8828 41.5419C18.8828 41.5631 18.8828 41.6055 18.8828 41.6267C18.8828 41.648 18.8828 41.6691 18.8828 41.6904C18.8828 41.7328 18.8616 41.7541 18.8616 41.7965C18.8616 41.8176 18.8616 41.8389 18.8403 41.8602C18.8403 41.9026 18.8191 41.945 18.8191 41.9874C18.8191 42.0087 18.8191 42.0299 18.7978 42.0511C18.7766 42.1148 18.7554 42.1784 18.7341 42.2421C18.7341 42.2421 18.7341 42.2421 18.7341 42.2633C18.7129 42.327 18.6917 42.3906 18.6705 42.433C18.6705 42.4543 18.6492 42.4755 18.6492 42.4967C18.628 42.5391 18.6068 42.5816 18.6068 42.624C18.5855 42.6453 18.5855 42.6877 18.5644 42.7089C18.5431 42.7513 18.522 42.7937 18.5007 42.8362C18.4795 42.8574 18.4795 42.8998 18.4583 42.921C18.437 42.9635 18.4159 43.0059 18.3946 43.0483C18.3734 43.0908 18.3734 43.112 18.3522 43.1544C18.3309 43.1757 18.3309 43.1968 18.3098 43.2181H18.2885C18.1612 43.2393 18.0552 43.2393 17.9279 43.2605C17.9066 43.2605 17.9066 43.2605 17.8854 43.2605C17.7581 43.2605 17.6308 43.2818 17.5035 43.2818H17.4823C17.355 43.2818 17.2277 43.303 17.1216 43.303C17.1004 43.303 17.1004 43.303 17.0792 43.303C16.9519 43.303 16.8034 43.303 16.6761 43.303C14.6393 43.3243 12.7086 42.9208 10.884 42.1783Z" fill="white"/>
<mask id="mask0_677_13690" style="mask-type:luminance" maskUnits="userSpaceOnUse" x="-58" y="-108" width="260" height="260">
<path d="M-57.0039 -107.603H201.972V151.373H-57.0039V-107.603Z" fill="white"/>
</mask>
<g mask="url(#mask0_677_13690)">
<path d="M39.6295 33.9473L39.2734 31.7035H46.5154C47.3372 31.7035 47.939 31.5797 48.3213 31.3326C48.703 31.0856 48.8939 30.6953 48.8939 30.1626C48.8939 29.6234 48.6789 29.2059 48.2488 28.9107C47.8186 28.6155 47.1797 28.3873 46.3324 28.2267L43.79 27.7549C42.3389 27.4853 41.2523 27.0422 40.53 26.4261C39.8077 25.8095 39.4467 24.9235 39.4467 23.7679C39.4467 22.6121 39.859 21.7182 40.6841 21.086C41.5092 20.4536 42.708 20.1374 44.281 20.1374H50.3001L50.6371 22.391H44.3773C43.5812 22.391 43.005 22.4984 42.6487 22.7134C42.2923 22.9286 42.1141 23.2671 42.1141 23.7294C42.1141 24.2175 42.3213 24.5995 42.7354 24.8756C43.1495 25.1514 43.7708 25.37 44.5988 25.5303L47.1797 26.0021C48.6694 26.2785 49.7721 26.7293 50.4879 27.3553C51.2037 27.9812 51.5619 28.8977 51.5619 30.1048C51.5619 31.3311 51.1364 32.2782 50.2856 32.9458C49.4349 33.6137 48.2104 33.9473 46.6115 33.9473H39.6295Z" fill="white"/>
<path d="M60.0582 28.1498H65.9905L64.4401 23.5753C64.1767 22.7854 63.7017 22.391 63.0146 22.391C62.3467 22.391 61.8816 22.7854 61.6182 23.5753L60.0582 28.1498ZM67.9456 33.9473L66.7418 30.4128H59.3069L58.1032 33.9473H55.3008L59.23 22.882C59.4931 22.1372 59.8222 21.5415 60.2169 21.0956C60.6119 20.6494 61.0309 20.3458 61.4737 20.1853C61.9168 20.025 62.4304 19.9444 63.0146 19.9444C63.92 19.9444 64.692 20.1627 65.3309 20.5996C65.9696 21.036 66.4785 21.7971 66.8571 22.882L70.7865 33.9473H67.9456Z" fill="white"/>
<path d="M85.734 20.1374H88.3341V33.9473H85.734V28.0535H78.1356V33.9473H75.5547V20.1374H78.1356V25.7807H85.734V20.1374Z" fill="white"/>
<path d="M97.8629 28.1498H103.795L102.244 23.5753C101.981 22.7854 101.506 22.391 100.819 22.391C100.151 22.391 99.6861 22.7854 99.4229 23.5753L97.8629 28.1498ZM105.75 33.9473L104.546 30.4128H97.1116L95.9079 33.9473H93.1055L97.0344 22.882C97.2978 22.1372 97.6267 21.5415 98.0216 21.0956C98.4166 20.6494 98.8356 20.3458 99.2784 20.1853C99.7215 20.025 100.235 19.9444 100.819 19.9444C101.725 19.9444 102.496 20.1627 103.135 20.5996C103.774 21.036 104.283 21.7971 104.662 22.882L108.591 33.9473H105.75Z" fill="white"/>
<path d="M121.882 29.469L125.706 33.9473H122.45L118.309 29.0358V27.4757H119.379C120.572 27.4757 121.439 27.2636 121.979 26.8402C122.518 26.4162 122.788 25.7807 122.788 24.9331C122.788 24.0922 122.518 23.4582 121.979 23.0314C121.439 22.6044 120.572 22.391 119.379 22.391H115.94V33.9473H113.359V20.1374H119.532C121.478 20.1374 122.951 20.5644 123.953 21.418C124.954 22.2721 125.455 23.4437 125.455 24.9331C125.455 26.0889 125.153 27.0582 124.55 27.8416C123.946 28.625 123.057 29.1673 121.882 29.469Z" fill="white"/>
<path d="M134.238 28.1498H140.17L138.619 23.5753C138.356 22.7854 137.881 22.391 137.194 22.391C136.526 22.391 136.061 22.7854 135.798 23.5753L134.238 28.1498ZM142.125 33.9473L140.921 30.4128H133.487L132.283 33.9473H129.48L133.409 22.882C133.673 22.1372 134.002 21.5415 134.397 21.0956C134.792 20.6494 135.21 20.3458 135.653 20.1853C136.097 20.025 136.61 19.9444 137.194 19.9444C138.1 19.9444 138.871 20.1627 139.51 20.5996C140.149 21.036 140.658 21.7971 141.037 22.882L144.966 33.9473H142.125Z" fill="white"/>
</g>
<path d="M113.082 37.7637V44.8924H116.045C118.59 44.8924 119.783 43.749 119.783 41.328C119.783 38.9071 118.59 37.7637 116.045 37.7637H113.082ZM114.414 43.7341V38.9269H116.045C117.656 38.9269 118.406 39.6975 118.406 41.328C118.406 42.9586 117.656 43.7341 116.045 43.7341H114.414Z" fill="white"/>
<path d="M127.479 44.8924L127.653 43.7341H124.367C123.567 43.7341 123.194 43.3811 123.194 42.6305V41.8202H126.768V40.6967H123.194V38.9269H127.563L127.389 37.7637H121.852V42.7548C121.852 44.1815 122.577 44.8924 124.029 44.8924H127.479Z" fill="white"/>
<path d="M133.011 44.8924C134.661 44.8924 135.566 44.1765 135.566 42.9089C135.566 42.2875 135.382 41.8102 135.014 41.4871C134.641 41.164 134.075 40.9353 133.304 40.7911L131.972 40.5476C131.117 40.3835 130.689 40.12 130.689 39.6179C130.689 39.1407 131.037 38.9269 131.857 38.9269H135.089L134.915 37.7637H131.808C130.182 37.7637 129.312 38.4447 129.312 39.6378C129.312 40.2344 129.501 40.6917 129.874 41.0099C130.247 41.328 130.804 41.5567 131.554 41.6959L132.867 41.9395C133.741 42.1035 134.189 42.3819 134.189 42.9387C134.189 43.4905 133.811 43.7341 132.961 43.7341H129.223L129.407 44.8924H133.011Z" fill="white"/>
<path d="M142.38 42.2228C142.102 41.8152 141.778 41.512 141.411 41.3181C141.788 41.0795 142.057 40.7812 142.38 40.299L144.11 37.7637H142.554L141.291 39.7323C140.869 40.3835 140.431 40.7066 139.989 40.7066H138.875V37.7637H137.543V44.8924H138.875V41.8997H139.969C140.431 41.8997 140.899 42.2825 141.281 42.8542L142.584 44.8924H144.214L142.38 42.2228Z" fill="white"/>
</g>
<defs>
<clipPath id="clip0_677_13690">
<rect width="144.964" height="45" fill="white"/>
</clipPath>
</defs>
</svg>
